<svg xmlns="http://www.w3.org/2000/svg" viewBox="0 0 512 512" width="512" height="512">
  <defs>
    <clipPath id="tile"><rect x="16" y="16" width="480" height="480" rx="108"/></clipPath>
    <pattern id="argyle" width="120" height="160" patternUnits="userSpaceOnUse">
      <rect width="120" height="160" fill="#030E13"/>
      <polygon points="60,0 120,80 60,160 0,80" fill="#0A3041"/>
      <polygon points="0,0 60,80 0,160" fill="#061E28"/>
      <polygon points="120,0 60,80 120,160" fill="#061E28"/>
      <g stroke="#1E90C0" stroke-width="2" opacity="0.30" stroke-dasharray="6 7">
        <path d="M60 -80 L200 80 M60 -80 L-80 80 M60 80 L200 240 M60 80 L-80 240 M60 240 L200 400 M60 240 L-80 400"/>
      </g>
    </pattern>
  </defs>
  <g clip-path="url(#tile)"><rect x="16" y="16" width="480" height="480" fill="url(#argyle)"/></g>
  <rect x="16" y="16" width="480" height="480" rx="108" fill="none" stroke="#2BD3D3" stroke-width="6"/>
  <g fill="none" stroke="#1E90C0" stroke-width="20" stroke-linecap="round"><path d="M150 256 q0 -70 53 -70 t53 70 t53 70 t53 -70"/><circle cx="256" cy="256" r="16" fill="#1E90C0" stroke="none"/></g>
</svg>
